<svg xmlns="http://www.w3.org/2000/svg" xmlns:xlink="http://www.w3.org/1999/xlink" width="203" height="203" viewBox="0 0 203 203">
  <defs>
    <clipPath id="clip-path">
      <rect id="Rectangle_7" data-name="Rectangle 7" width="203" height="203" transform="translate(723 426)" fill="#ffffff" stroke="#fff" stroke-width="1"/>
    </clipPath>
  </defs>
  <g id="_3_balconies" data-name="3 balconies" transform="translate(-723 -426)" clip-path="url(#clip-path)">
    <g id="antique-balcony" transform="translate(723 426)">
      <path id="Path_28" data-name="Path 28" d="M187.141,111.016H15.859a9.526,9.526,0,0,0-9.516,9.516,3.172,3.172,0,0,0,6.344,0,3.176,3.176,0,0,1,3.172-3.172h2.6l-7.364,44.185a28.576,28.576,0,0,0,3.68,19.382l4.256,7.093v11.412A3.572,3.572,0,0,0,22.6,203H180.4a3.572,3.572,0,0,0,3.568-3.568V188.019l4.256-7.093a28.576,28.576,0,0,0,3.68-19.382l-7.364-44.185h2.6a3.176,3.176,0,0,1,3.172,3.172,3.172,3.172,0,0,0,6.344,0A9.526,9.526,0,0,0,187.141,111.016Zm-20.215,66.647-3.784,6.306h-9.378l2.241-5.6a28.645,28.645,0,0,0,1.867-13.756l-5.25-47.251h9.629l7.538,45.229A22.228,22.228,0,0,1,166.926,177.663Zm-29.5,6.306,2.115-7.41a28.443,28.443,0,0,0,1.007-10.093l-3.893-49.106h9.587l5.328,47.952a22.272,22.272,0,0,1-1.453,10.7l-3.183,7.959Zm-16.708,0,.653-11.6c.038-.678.052-1.367.041-2.049l-.827-52.962h9.707l3.933,49.608a22.122,22.122,0,0,1-.783,7.85l-2.612,9.152Zm-16.043,0V117.359h9.565l.829,53.062c.008.53,0,1.067-.032,1.594l-.672,11.954Zm-16.052,0L87.878,172.1c-.036-.588-.05-1.184-.04-1.771l.92-52.966h9.57v66.609Zm-48.762,0-3.784-6.306a22.227,22.227,0,0,1-2.863-15.075l7.538-45.229h9.629l-5.25,47.251A28.645,28.645,0,0,0,47,178.366l2.241,5.6Zm16.211,0-3.184-7.959a22.276,22.276,0,0,1-1.453-10.7l5.328-47.952h9.585l-3.919,49.073a28.452,28.452,0,0,0,1.021,10.161l2.121,7.376Zm16.1,0-2.625-9.129a22.12,22.12,0,0,1-.794-7.9l3.959-49.578h9.7L81.5,170.215c-.013.754,0,1.52.051,2.277l.718,11.477ZM17.352,162.588l7.538-45.229h9.428l-7.364,44.185a28.576,28.576,0,0,0,3.68,19.382l1.825,3.042H24l-3.784-6.306A22.228,22.228,0,0,1,17.352,162.588Zm160.273,34.068H25.375v-6.344h152.25Zm5.16-18.994L179,183.969H170.54l1.825-3.042a28.576,28.576,0,0,0,3.68-19.382l-7.364-44.185h9.428l7.538,45.229A22.228,22.228,0,0,1,182.785,177.663Z" fill="#ffffff"/>
      <path id="Path_29" data-name="Path 29" d="M41.234,104.672a3.172,3.172,0,0,0,3.172-3.172V6.344H158.594V101.5a3.172,3.172,0,0,0,6.344,0V6.344A6.351,6.351,0,0,0,158.594,0H44.406a6.351,6.351,0,0,0-6.344,6.344V101.5A3.172,3.172,0,0,0,41.234,104.672Z" fill="#ffffff"/>
      <path id="Path_30" data-name="Path 30" d="M149.078,104.672a3.172,3.172,0,0,0,3.172-3.172V15.859a3.172,3.172,0,0,0-3.172-3.172H53.922a3.172,3.172,0,0,0-3.172,3.172V101.5a3.172,3.172,0,0,0,6.344,0V53.922H88.812a3.172,3.172,0,0,0,0-6.344H57.094V19.031H98.328V101.5a3.172,3.172,0,0,0,6.344,0V53.922h41.234V101.5A3.172,3.172,0,0,0,149.078,104.672ZM104.672,47.578V19.031h41.234V47.578Z" fill="#ffffff"/>
    </g>
  </g>
</svg>
