<svg xmlns="http://www.w3.org/2000/svg" xmlns:xlink="http://www.w3.org/1999/xlink" width="203" height="203" viewBox="0 0 203 203">
  <defs>
    <clipPath id="clip-path">
      <rect id="Rectangle_10" data-name="Rectangle 10" width="203" height="203" transform="translate(155 706)" fill="#ffffff" stroke="#fff" stroke-width="1"/>
    </clipPath>
  </defs>
  <g id="_3_parking" data-name="3 parking" transform="translate(-155 -706)" clip-path="url(#clip-path)">
    <g id="Outline" transform="translate(148.233 699.233)">
      <path id="Path_31" data-name="Path 31" d="M57.517,121.8H20.3A13.549,13.549,0,0,1,6.767,108.267V20.3A13.549,13.549,0,0,1,20.3,6.767h87.967A13.549,13.549,0,0,1,121.8,20.3V77.817h-6.767V20.3a6.775,6.775,0,0,0-6.767-6.767H20.3A6.775,6.775,0,0,0,13.533,20.3v87.967a6.775,6.775,0,0,0,6.767,6.767H57.517Z" fill="#ffffff"/>
      <path id="Path_32" data-name="Path 32" d="M50.75,108.267H30.45a3.383,3.383,0,0,1-3.383-3.383v-81.2A3.383,3.383,0,0,1,30.45,20.3h40.6a30.45,30.45,0,0,1,0,60.9H54.133v23.683A3.383,3.383,0,0,1,50.75,108.267ZM33.833,101.5H47.367V77.817a3.383,3.383,0,0,1,3.383-3.383h20.3a23.683,23.683,0,1,0,0-47.367H33.833ZM71.05,60.9H50.75a3.383,3.383,0,0,1-3.383-3.383V43.983A3.383,3.383,0,0,1,50.75,40.6h20.3a10.15,10.15,0,0,1,0,20.3ZM54.133,54.133H71.05a3.383,3.383,0,0,0,0-6.767H54.133Z" fill="#ffffff"/>
      <path id="Path_33" data-name="Path 33" d="M205.392,139.708a14.826,14.826,0,0,0-10.1-4.363L181.456,93.836a13.519,13.519,0,0,0-12.839-9.253h-80.1a13.519,13.519,0,0,0-12.839,9.253L61.841,135.344a14.929,14.929,0,0,0-14.474,14.923v25.666A13.549,13.549,0,0,0,60.9,189.467H84.583V203h-20.3V186.594H57.517V203a6.775,6.775,0,0,0,6.767,6.767h20.3A6.775,6.775,0,0,0,91.35,203V189.467h74.433V203a6.775,6.775,0,0,0,6.767,6.767h20.3A6.775,6.775,0,0,0,199.617,203V189.038a13.557,13.557,0,0,0,10.15-13.1V150.268a14.837,14.837,0,0,0-4.374-10.56ZM88.516,91.35h80.1a6.761,6.761,0,0,1,6.42,4.627l.713,2.14H81.383l.713-2.14a6.761,6.761,0,0,1,6.42-4.627Zm-9.389,13.533h98.878l10.15,30.45H68.978ZM192.85,203h-20.3V189.467h20.3l0,13.533ZM203,175.933a6.775,6.775,0,0,1-6.767,6.767H60.9a6.775,6.775,0,0,1-6.767-6.767V150.268A8.168,8.168,0,0,1,62.3,142.1H194.832A8.168,8.168,0,0,1,203,150.267Z" fill="#ffffff"/>
      <path id="Path_34" data-name="Path 34" d="M74.433,148.867A13.533,13.533,0,1,0,87.967,162.4a13.533,13.533,0,0,0-13.533-13.533Zm0,20.3A6.767,6.767,0,1,1,81.2,162.4a6.767,6.767,0,0,1-6.767,6.767Z" fill="#ffffff"/>
      <path id="Path_35" data-name="Path 35" d="M182.7,148.867A13.533,13.533,0,1,0,196.233,162.4,13.533,13.533,0,0,0,182.7,148.867Zm0,20.3a6.767,6.767,0,1,1,6.767-6.767,6.767,6.767,0,0,1-6.767,6.767Z" fill="#ffffff"/>
      <path id="Path_36" data-name="Path 36" d="M94.733,152.25H162.4v6.767H94.733Z" fill="#ffffff"/>
      <path id="Path_37" data-name="Path 37" d="M94.733,165.783H162.4v6.767H94.733Z" fill="#ffffff"/>
    </g>
  </g>
</svg>
