<svg xmlns="http://www.w3.org/2000/svg" xmlns:xlink="http://www.w3.org/1999/xlink" width="215" height="215" viewBox="0 0 215 215">
  <defs>
    <clipPath id="clip-path">
      <rect id="Rectangle_3" data-name="Rectangle 3" width="215" height="215" transform="translate(566 68)" fill="#ffffff" stroke="#707070" stroke-width="1"/>
    </clipPath>
  </defs>
  <g id="BBQ" transform="translate(-566 -68)" clip-path="url(#clip-path)">
    <g id="bbq-2" data-name="bbq" transform="translate(566 68)">
      <g id="Group_4" data-name="Group 4">
        <g id="Group_3" data-name="Group 3">
          <path id="Path_10" data-name="Path 10" d="M211.384,88.474c0-.106.023-.208.023-.314,0-23.18-53.535-35.687-103.906-35.687S3.594,64.98,3.594,88.159c0,.04.008.078.008.118a80.682,80.682,0,0,0,20.661,54.07A77.429,77.429,0,0,0,35.572,152.44L18.036,186.054A10.739,10.739,0,0,0,37.1,195.946l17.283-33.085a131.186,131.186,0,0,0,42.356,8.806V204.25a10.75,10.75,0,0,0,21.5,0V171.666a132.945,132.945,0,0,0,40.652-8.138c.545-.207,1.075-.475,1.618-.692l17.378,33.272a10.764,10.764,0,0,0,9.51,5.777,11.015,11.015,0,0,0,4.979-1.242,10.813,10.813,0,0,0,4.539-14.5l-17.591-33.662A79.336,79.336,0,0,0,211.384,88.474ZM107.5,59.639c56.983,0,96.7,15.015,96.738,28.5,0,.065-.031.121-.028.187l0,.115c-.549,13.417-40.1,28.237-96.714,28.237-57.01,0-96.74-15.03-96.74-28.52S50.491,59.639,107.5,59.639ZM30.745,192.632a3.572,3.572,0,1,1-6.329-3.314l17.15-32.873q3.03,1.839,6.275,3.462Zm80.328,11.618a3.583,3.583,0,0,1-7.166,0V157.667a3.583,3.583,0,0,1,7.166,0Zm79.489-14.792a3.566,3.566,0,0,1-1.463,4.811,3.491,3.491,0,0,1-4.869-1.5L167.059,159.9c1.776-.885,3.548-1.786,5.266-2.787a3.453,3.453,0,0,0,.406-.28c.2-.12.387-.248.587-.368Zm-21.853-38.577a3.677,3.677,0,0,0-.383.262,83.486,83.486,0,0,1-12,5.693,125.658,125.658,0,0,1-38.082,7.655v-6.825a10.75,10.75,0,1,0-21.5,0v6.764c-29.657-1.736-52.277-10.707-67.121-26.847A72.422,72.422,0,0,1,12.362,103.2c17.205,13.5,57.066,20.647,95.137,20.647s77.927-7.148,95.134-20.644A70.881,70.881,0,0,1,168.709,150.882Z" fill="#ffffff"/>
          <path id="Path_11" data-name="Path 11" d="M27.72,96.646A3.583,3.583,0,0,0,31.19,95.7L49.107,77.784a3.583,3.583,0,1,0-5.067-5.067L26.123,90.634a3.583,3.583,0,0,0,1.6,6.012Z" fill="#ffffff"/>
          <path id="Path_12" data-name="Path 12" d="M39.511,101.27a3.583,3.583,0,0,0,6.012,1.6L74.19,74.2a3.583,3.583,0,1,0-5.067-5.067L40.456,97.8A3.583,3.583,0,0,0,39.511,101.27Z" fill="#ffffff"/>
          <path id="Path_13" data-name="Path 13" d="M57.427,104.853a3.583,3.583,0,0,0,6.012,1.6L99.272,70.617a3.583,3.583,0,1,0-5.067-5.067L58.372,101.383A3.583,3.583,0,0,0,57.427,104.853Z" fill="#ffffff"/>
          <path id="Path_14" data-name="Path 14" d="M75.344,108.436a3.583,3.583,0,0,0,6.012,1.6l39.417-39.417a3.583,3.583,0,1,0-5.067-5.067L76.289,104.967A3.583,3.583,0,0,0,75.344,108.436Z" fill="#ffffff"/>
          <path id="Path_15" data-name="Path 15" d="M96.844,108.436a3.583,3.583,0,0,0,6.012,1.6L138.689,74.2a3.583,3.583,0,1,0-5.067-5.067L97.789,104.967A3.583,3.583,0,0,0,96.844,108.436Z" fill="#ffffff"/>
          <path id="Path_16" data-name="Path 16" d="M118.344,108.436a3.583,3.583,0,0,0,6.012,1.6l32.25-32.25a3.583,3.583,0,1,0-5.067-5.067l-32.25,32.25A3.583,3.583,0,0,0,118.344,108.436Z" fill="#ffffff"/>
          <path id="Path_17" data-name="Path 17" d="M143.427,104.853a3.583,3.583,0,0,0,6.012,1.6l28.667-28.667a3.583,3.583,0,1,0-5.067-5.067l-28.667,28.667A3.583,3.583,0,0,0,143.427,104.853Z" fill="#ffffff"/>
          <path id="Path_18" data-name="Path 18" d="M168.5,101.273a3.583,3.583,0,0,0,6.02,1.594l14.333-14.333a3.583,3.583,0,1,0-5.067-5.067L169.456,97.8A3.584,3.584,0,0,0,168.5,101.273Z" fill="#ffffff"/>
          <path id="Path_19" data-name="Path 19" d="M82.152,29.881a7.092,7.092,0,0,1,0,9.1L80.716,40.7a3.582,3.582,0,1,0,5.494,4.6l1.44-1.718a14.247,14.247,0,0,0,.063-18.221l-.07-.087a7.085,7.085,0,0,1,0-9.1l8.6-10.288a3.583,3.583,0,0,0-5.5-4.6l-8.6,10.288A14.245,14.245,0,0,0,82.084,29.8Z" fill="#ffffff"/>
          <path id="Path_20" data-name="Path 20" d="M103.652,29.881a7.092,7.092,0,0,1,0,9.1L102.216,40.7a3.582,3.582,0,1,0,5.494,4.6l1.44-1.718a14.247,14.247,0,0,0,.063-18.221l-.07-.087a7.085,7.085,0,0,1,0-9.1l8.6-10.288a3.584,3.584,0,0,0-5.5-4.6l-8.6,10.288a14.245,14.245,0,0,0-.061,18.225Z" fill="#ffffff"/>
          <path id="Path_21" data-name="Path 21" d="M125.152,29.881a7.092,7.092,0,0,1,0,9.1L123.716,40.7a3.582,3.582,0,1,0,5.494,4.6l1.44-1.718a14.247,14.247,0,0,0,.063-18.221l-.07-.087a7.085,7.085,0,0,1,0-9.1l8.6-10.288a3.584,3.584,0,0,0-5.5-4.6l-8.6,10.288a14.245,14.245,0,0,0-.061,18.225Z" fill="#ffffff"/>
        </g>
      </g>
    </g>
  </g>
</svg>
