<?xml version="1.0" encoding="utf-8"?>
<!-- Generator: Adobe Illustrator 19.0.0, SVG Export Plug-In . SVG Version: 6.00 Build 0)  -->
<svg version="1.1" id="Layer_1" xmlns="http://www.w3.org/2000/svg" xmlns:xlink="http://www.w3.org/1999/xlink" x="0px" y="0px"
	 viewBox="0 0 70 70" style="enable-background:new 0 0 70 70;" xml:space="preserve">
<style type="text/css">
	.st0{fill:#FFFFFF;stroke:#FFFFFF;stroke-width:0.5;stroke-miterlimit:10;}
</style>
<g>
	<path class="st0" d="M30.7,31.4H6.6c-1.3,0-2.4-1.1-2.4-2.4v-7.5c0-1.3,1.1-2.4,2.4-2.4h24.1c1.3,0,2.4,1.1,2.4,2.4V29
		C33.1,30.3,32,31.4,30.7,31.4z M6.6,19.9c-0.9,0-1.6,0.7-1.6,1.6V29c0,0.9,0.7,1.6,1.6,1.6h24.1c0.9,0,1.6-0.7,1.6-1.6v-7.5
		c0-0.9-0.7-1.6-1.6-1.6H6.6z"/>
</g>
<g>
	<path class="st0" d="M29.8,19.6l-1.1-7.8c-0.1-0.9-1-1.6-1.9-1.6H10.4c-0.9,0-1.7,0.7-1.9,1.6l-1.1,7.8l-0.8-0.1l1.1-7.8
		c0.2-1.3,1.4-2.3,2.6-2.3h16.5c1.3,0,2.5,1,2.6,2.3l1.1,7.8L29.8,19.6z"/>
</g>
<g>
	<g>
		<path class="st0" d="M9.3,35.9c-1.1,0-2.1-1.1-2.1-2.4V31H8v2.5c0,0.9,0.6,1.7,1.3,1.7c0.7,0,1.3-0.8,1.3-1.7v-2.4h0.8v2.4
			C11.4,34.8,10.4,35.9,9.3,35.9z"/>
	</g>
	<g>
		<path class="st0" d="M27.9,35.9c-1.1,0-2.1-1.1-2.1-2.4V31h0.8v2.5c0,0.9,0.6,1.7,1.3,1.7s1.3-0.8,1.3-1.7V31H30v2.5
			C30,34.8,29.1,35.9,27.9,35.9z"/>
	</g>
</g>
<g>
	<path class="st0" d="M10.9,27.7c-1.1,0-2.1-1.1-2.1-2.4c0-1.3,0.9-2.4,2.1-2.4s2.1,1.1,2.1,2.4C13,26.6,12.1,27.7,10.9,27.7z
		 M10.9,23.6c-0.7,0-1.3,0.7-1.3,1.7c0,0.9,0.6,1.7,1.3,1.7s1.3-0.7,1.3-1.7C12.2,24.4,11.6,23.6,10.9,23.6z"/>
</g>
<g>
	<path class="st0" d="M26.2,27.7c-1.1,0-2.1-1.1-2.1-2.4c0-1.3,0.9-2.4,2.1-2.4c1.1,0,2.1,1.1,2.1,2.4
		C28.3,26.6,27.3,27.7,26.2,27.7z M26.2,23.6c-0.7,0-1.3,0.7-1.3,1.7c0,0.9,0.6,1.7,1.3,1.7c0.7,0,1.3-0.7,1.3-1.7
		C27.5,24.4,26.9,23.6,26.2,23.6z"/>
</g>
<g>
	<path class="st0" d="M22,27.2h-6.8c-1,0-1.9-0.8-1.9-1.9v-0.1c0-1,0.8-1.9,1.9-1.9H22c1,0,1.9,0.8,1.9,1.9v0.1
		C23.9,26.4,23.1,27.2,22,27.2z M15.3,24.1c-0.6,0-1.1,0.5-1.1,1.1v0.1c0,0.6,0.5,1.1,1.1,1.1H22c0.6,0,1.1-0.5,1.1-1.1v-0.1
		c0-0.6-0.5-1.1-1.1-1.1H15.3z"/>
</g>
<g>
	<rect x="13.8" y="24.9" class="st0" width="9.6" height="0.8"/>
</g>
<g>
	<path class="st0" d="M61.9,31.4H37.9c-1.3,0-2.4-1.1-2.4-2.4v-7.5c0-1.3,1.1-2.4,2.4-2.4h24.1c1.3,0,2.4,1.1,2.4,2.4V29
		C64.3,30.3,63.2,31.4,61.9,31.4z M37.9,19.9c-0.9,0-1.6,0.7-1.6,1.6V29c0,0.9,0.7,1.6,1.6,1.6h24.1c0.9,0,1.6-0.7,1.6-1.6v-7.5
		c0-0.9-0.7-1.6-1.6-1.6H37.9z"/>
</g>
<g>
	<path class="st0" d="M38.7,19.6L38,19.5l1.1-7.8c0.2-1.3,1.4-2.3,2.6-2.3h16.5c1.3,0,2.5,1,2.6,2.3l1.1,7.8l-0.8,0.1L60,11.8
		c-0.1-0.9-1-1.6-1.9-1.6H41.7c-0.9,0-1.7,0.7-1.9,1.6L38.7,19.6z"/>
</g>
<g>
	<g>
		<path class="st0" d="M40.5,35.9c-1.1,0-2.1-1.1-2.1-2.4V31h0.8v2.5c0,0.9,0.6,1.7,1.3,1.7s1.3-0.8,1.3-1.7v-2.4h0.8v2.4
			C42.6,34.8,41.7,35.9,40.5,35.9z"/>
	</g>
	<g>
		<path class="st0" d="M59.2,35.9c-1.1,0-2.1-1.1-2.1-2.4V31h0.8v2.5c0,0.9,0.6,1.7,1.3,1.7s1.3-0.8,1.3-1.7V31h0.8v2.5
			C61.2,34.8,60.3,35.9,59.2,35.9z"/>
	</g>
</g>
<g>
	<path class="st0" d="M42.1,27.7c-1.1,0-2.1-1.1-2.1-2.4c0-1.3,0.9-2.4,2.1-2.4s2.1,1.1,2.1,2.4C44.2,26.6,43.3,27.7,42.1,27.7z
		 M42.1,23.6c-0.7,0-1.3,0.7-1.3,1.7c0,0.9,0.6,1.7,1.3,1.7s1.3-0.7,1.3-1.7C43.4,24.4,42.8,23.6,42.1,23.6z"/>
</g>
<g>
	<path class="st0" d="M57.4,27.7c-1.1,0-2.1-1.1-2.1-2.4c0-1.3,0.9-2.4,2.1-2.4s2.1,1.1,2.1,2.4C59.5,26.6,58.6,27.7,57.4,27.7z
		 M57.4,23.6c-0.7,0-1.3,0.7-1.3,1.7c0,0.9,0.6,1.7,1.3,1.7s1.3-0.7,1.3-1.7C58.7,24.4,58.1,23.6,57.4,23.6z"/>
</g>
<g>
	<path class="st0" d="M53.3,27.2h-6.8c-1,0-1.9-0.8-1.9-1.9v-0.1c0-1,0.8-1.9,1.9-1.9h6.8c1,0,1.9,0.8,1.9,1.9v0.1
		C55.2,26.4,54.3,27.2,53.3,27.2z M46.5,24.1c-0.6,0-1.1,0.5-1.1,1.1v0.1c0,0.6,0.5,1.1,1.1,1.1h6.8c0.6,0,1.1-0.5,1.1-1.1v-0.1
		c0-0.6-0.5-1.1-1.1-1.1H46.5z"/>
</g>
<g>
	<rect x="45" y="24.9" class="st0" width="9.6" height="0.8"/>
</g>
<g>
	<g>
		<path class="st0" d="M30.7,63H6.6c-1.3,0-2.4-1.1-2.4-2.4v-7.5c0-1.3,1.1-2.4,2.4-2.4h24.1c1.3,0,2.4,1.1,2.4,2.4v7.5
			C33.1,61.9,32,63,30.7,63z M6.6,51.5c-0.9,0-1.6,0.7-1.6,1.6v7.5c0,0.9,0.7,1.6,1.6,1.6h24.1c0.9,0,1.6-0.7,1.6-1.6v-7.5
			c0-0.9-0.7-1.6-1.6-1.6H6.6z"/>
	</g>
	<g>
		<path class="st0" d="M29.8,51.2l-1.1-7.8c-0.1-0.9-1-1.6-1.9-1.6H10.4c-0.9,0-1.7,0.7-1.9,1.6l-1.1,7.8l-0.8-0.1l1.1-7.8
			C8,42.1,9.1,41,10.4,41h16.5c1.3,0,2.5,1,2.6,2.3l1.1,7.8L29.8,51.2z"/>
	</g>
	<g>
		<g>
			<path class="st0" d="M9.3,67.5c-1.1,0-2.1-1.1-2.1-2.4v-2.5H8v2.5c0,0.9,0.6,1.7,1.3,1.7c0.7,0,1.3-0.8,1.3-1.7v-2.4h0.8v2.4
				C11.4,66.4,10.4,67.5,9.3,67.5z"/>
		</g>
		<g>
			<path class="st0" d="M27.9,67.5c-1.1,0-2.1-1.1-2.1-2.4v-2.5h0.8v2.5c0,0.9,0.6,1.7,1.3,1.7s1.3-0.8,1.3-1.7v-2.5H30v2.5
				C30,66.4,29.1,67.5,27.9,67.5z"/>
		</g>
	</g>
	<g>
		<path class="st0" d="M10.9,59.3c-1.1,0-2.1-1.1-2.1-2.4s0.9-2.4,2.1-2.4s2.1,1.1,2.1,2.4S12.1,59.3,10.9,59.3z M10.9,55.2
			c-0.7,0-1.3,0.7-1.3,1.7s0.6,1.7,1.3,1.7s1.3-0.7,1.3-1.7S11.6,55.2,10.9,55.2z"/>
	</g>
	<g>
		<path class="st0" d="M26.2,59.3c-1.1,0-2.1-1.1-2.1-2.4s0.9-2.4,2.1-2.4c1.1,0,2.1,1.1,2.1,2.4S27.3,59.3,26.2,59.3z M26.2,55.2
			c-0.7,0-1.3,0.7-1.3,1.7s0.6,1.7,1.3,1.7c0.7,0,1.3-0.7,1.3-1.7S26.9,55.2,26.2,55.2z"/>
	</g>
	<g>
		<path class="st0" d="M22,58.8h-6.8c-1,0-1.9-0.8-1.9-1.9v-0.1c0-1,0.8-1.9,1.9-1.9H22c1,0,1.9,0.8,1.9,1.9v0.1
			C23.9,58,23.1,58.8,22,58.8z M15.3,55.7c-0.6,0-1.1,0.5-1.1,1.1v0.1c0,0.6,0.5,1.1,1.1,1.1H22c0.6,0,1.1-0.5,1.1-1.1v-0.1
			c0-0.6-0.5-1.1-1.1-1.1H15.3z"/>
	</g>
	<g>
		<rect x="13.8" y="56.5" class="st0" width="9.6" height="0.8"/>
	</g>
	<g>
		<path class="st0" d="M61.9,63H37.9c-1.3,0-2.4-1.1-2.4-2.4v-7.5c0-1.3,1.1-2.4,2.4-2.4h24.1c1.3,0,2.4,1.1,2.4,2.4v7.5
			C64.3,61.9,63.2,63,61.9,63z M37.9,51.5c-0.9,0-1.6,0.7-1.6,1.6v7.5c0,0.9,0.7,1.6,1.6,1.6h24.1c0.9,0,1.6-0.7,1.6-1.6v-7.5
			c0-0.9-0.7-1.6-1.6-1.6H37.9z"/>
	</g>
	<g>
		<path class="st0" d="M38.7,51.2L38,51.1l1.1-7.8c0.2-1.3,1.4-2.3,2.6-2.3h16.5c1.3,0,2.5,1,2.6,2.3l1.1,7.8l-0.8,0.1L60,43.4
			c-0.1-0.9-1-1.6-1.9-1.6H41.7c-0.9,0-1.7,0.7-1.9,1.6L38.7,51.2z"/>
	</g>
	<g>
		<g>
			<path class="st0" d="M40.5,67.5c-1.1,0-2.1-1.1-2.1-2.4v-2.5h0.8v2.5c0,0.9,0.6,1.7,1.3,1.7s1.3-0.8,1.3-1.7v-2.4h0.8v2.4
				C42.6,66.4,41.7,67.5,40.5,67.5z"/>
		</g>
		<g>
			<path class="st0" d="M59.2,67.5c-1.1,0-2.1-1.1-2.1-2.4v-2.5h0.8v2.5c0,0.9,0.6,1.7,1.3,1.7s1.3-0.8,1.3-1.7v-2.5h0.8v2.5
				C61.2,66.4,60.3,67.5,59.2,67.5z"/>
		</g>
	</g>
	<g>
		<path class="st0" d="M42.1,59.3c-1.1,0-2.1-1.1-2.1-2.4s0.9-2.4,2.1-2.4s2.1,1.1,2.1,2.4S43.3,59.3,42.1,59.3z M42.1,55.2
			c-0.7,0-1.3,0.7-1.3,1.7s0.6,1.7,1.3,1.7s1.3-0.7,1.3-1.7S42.8,55.2,42.1,55.2z"/>
	</g>
	<g>
		<path class="st0" d="M57.4,59.3c-1.1,0-2.1-1.1-2.1-2.4s0.9-2.4,2.1-2.4s2.1,1.1,2.1,2.4S58.6,59.3,57.4,59.3z M57.4,55.2
			c-0.7,0-1.3,0.7-1.3,1.7s0.6,1.7,1.3,1.7s1.3-0.7,1.3-1.7S58.1,55.2,57.4,55.2z"/>
	</g>
	<g>
		<path class="st0" d="M53.3,58.8h-6.8c-1,0-1.9-0.8-1.9-1.9v-0.1c0-1,0.8-1.9,1.9-1.9h6.8c1,0,1.9,0.8,1.9,1.9v0.1
			C55.2,58,54.3,58.8,53.3,58.8z M46.5,55.7c-0.6,0-1.1,0.5-1.1,1.1v0.1c0,0.6,0.5,1.1,1.1,1.1h6.8c0.6,0,1.1-0.5,1.1-1.1v-0.1
			c0-0.6-0.5-1.1-1.1-1.1H46.5z"/>
	</g>
	<g>
		<rect x="45" y="56.5" class="st0" width="9.6" height="0.8"/>
	</g>
</g>
<g>
	<path class="st0" d="M66.3,67.8h-64v-64h64V67.8z M3.1,67.1h62.4V4.6H3.1V67.1z"/>
</g>
<g>
	<rect x="2.7" y="35.5" class="st0" width="63.2" height="0.8"/>
</g>
</svg>
