<?xml version="1.0" encoding="utf-8"?>
<!-- Generator: Adobe Illustrator 19.0.0, SVG Export Plug-In . SVG Version: 6.00 Build 0)  -->
<svg version="1.1" id="Layer_1" xmlns="http://www.w3.org/2000/svg" xmlns:xlink="http://www.w3.org/1999/xlink" x="0px" y="0px"
	 viewBox="0 0 70 70" style="enable-background:new 0 0 70 70;" xml:space="preserve">
<style type="text/css">
	.st0{fill:#FFFFFF;stroke:#FFFFFF;stroke-width:1.5;stroke-miterlimit:10;}
	.st1{fill:#FFFFFF;stroke:#FFFFFF;stroke-width:0.5;stroke-miterlimit:10;}
</style>
<line class="st0" x1="17.9" y1="27.6" x2="29.1" y2="27.6"/>
<line class="st0" x1="2.9" y1="27.6" x2="8.1" y2="27.6"/>
<line class="st0" x1="39.9" y1="27.6" x2="51.1" y2="27.6"/>
<line class="st0" x1="60.9" y1="27.6" x2="66.1" y2="27.6"/>
<line class="st0" x1="2.9" y1="44.6" x2="8.1" y2="44.6"/>
<line class="st0" x1="60.9" y1="44.6" x2="66.1" y2="44.6"/>
<line class="st0" x1="17.9" y1="44.6" x2="29.1" y2="44.6"/>
<line class="st0" x1="39.9" y1="44.6" x2="51.1" y2="44.6"/>
<line class="st0" x1="45.5" y1="44.6" x2="45.5" y2="68.6"/>
<line class="st0" x1="45.5" y1="4.6" x2="45.5" y2="27.6"/>
<line class="st0" x1="23.5" y1="44.6" x2="23.5" y2="68.6"/>
<line class="st0" x1="23.5" y1="4.6" x2="23.5" y2="27.6"/>
<g>
	<polygon class="st1" points="65.7,44.1 65.7,67.9 3.3,67.9 3.3,44.1 2.5,44.1 2.5,68.6 66.5,68.6 66.5,44.1 	"/>
	<polygon class="st1" points="3.3,28.2 3.3,5.4 65.7,5.4 65.7,28.2 66.5,28.2 66.5,4.6 2.5,4.6 2.5,28.2 	"/>
</g>
</svg>
