<svg xmlns="http://www.w3.org/2000/svg" xmlns:xlink="http://www.w3.org/1999/xlink" width="203" height="203" viewBox="0 0 203 203">
  <defs>
    <clipPath id="clip-path">
      <rect id="Rectangle_9" data-name="Rectangle 9" width="203" height="203" transform="translate(723 706)" fill="#ffffff" stroke="#707070" stroke-width="1"/>
    </clipPath>
  </defs>
  <g id="Fully_Furnished" data-name="Fully Furnished" transform="translate(-723 -706)" clip-path="url(#clip-path)">
    <g id="Outline" transform="translate(719.726 702.726)">
      <path id="Path_38" data-name="Path 38" d="M29.468,134.242a9.823,9.823,0,1,0,9.823,9.823A9.823,9.823,0,0,0,29.468,134.242Zm0,13.1a3.274,3.274,0,1,1,3.274-3.274,3.274,3.274,0,0,1-3.274,3.274Z" fill="#ffffff"/>
      <path id="Path_39" data-name="Path 39" d="M153.887,134.242a9.823,9.823,0,1,0,9.823,9.823A9.823,9.823,0,0,0,153.887,134.242Zm0,13.1a3.274,3.274,0,1,1,3.274-3.274A3.274,3.274,0,0,1,153.887,147.339Z" fill="#ffffff"/>
      <path id="Path_40" data-name="Path 40" d="M176.806,144.065a22.919,22.919,0,0,0-23.31-22.916,23.188,23.188,0,0,0-22.529,23.239v11c-8.969-2.441-22.05-4.774-39.29-4.774s-30.321,2.333-39.29,4.774V144.065a22.92,22.92,0,1,0-26.194,22.69v13.326a13.112,13.112,0,0,0,13.1,13.1V203a3.274,3.274,0,0,0,3.274,3.274h9.823a3.274,3.274,0,0,0,2.928-1.81l5.644-11.287H122.4l5.643,11.287a3.274,3.274,0,0,0,2.928,1.81h9.823A3.274,3.274,0,0,0,144.065,203v-9.823a13.112,13.112,0,0,0,13.1-13.1v-13.33A22.955,22.955,0,0,0,176.806,144.065ZM50.364,199.726H45.839v-6.548h7.8Zm87.152,0h-4.525l-3.274-6.548h7.8Zm16.371-39.29a3.274,3.274,0,0,0-3.274,3.274v16.371a6.556,6.556,0,0,1-6.548,6.548H39.29a6.556,6.556,0,0,1-6.548-6.548V163.71a3.274,3.274,0,0,0-3.274-3.274,16.37,16.37,0,1,1,16.371-16.371v13.342a54.652,54.652,0,0,0-8.154,3.449l3.2,5.711c.169-.094,17.307-9.406,50.789-9.406s50.62,9.312,50.782,9.4l3.21-5.708a54.443,54.443,0,0,0-8.154-3.449V144.388a16.61,16.61,0,0,1,16.09-16.692,16.371,16.371,0,1,1,.281,32.74Z" fill="#ffffff"/>
      <path id="Path_41" data-name="Path 41" d="M32.742,98.226a6.556,6.556,0,0,1,6.548-6.548H144.065a6.556,6.556,0,0,1,6.548,6.548V114.6h6.548V98.226a13.112,13.112,0,0,0-13.1-13.1H39.29a13.112,13.112,0,0,0-13.1,13.1V114.6h6.548Z" fill="#ffffff"/>
      <path id="Path_42" data-name="Path 42" d="M72.032,104.774h6.548v6.548H72.032Z" fill="#ffffff"/>
      <path id="Path_43" data-name="Path 43" d="M88.4,121.145h6.548v6.548H88.4Z" fill="#ffffff"/>
      <path id="Path_44" data-name="Path 44" d="M55.661,121.145H62.21v6.548H55.661Z" fill="#ffffff"/>
      <path id="Path_45" data-name="Path 45" d="M72.032,137.516h6.548v6.548H72.032Z" fill="#ffffff"/>
      <path id="Path_46" data-name="Path 46" d="M104.774,104.774h6.548v6.548h-6.548Z" fill="#ffffff"/>
      <path id="Path_47" data-name="Path 47" d="M121.145,121.145h6.548v6.548h-6.548Z" fill="#ffffff"/>
      <path id="Path_48" data-name="Path 48" d="M104.774,137.516h6.548v6.548h-6.548Z" fill="#ffffff"/>
      <path id="Path_49" data-name="Path 49" d="M189.9,3.274H98.226a13.112,13.112,0,0,0-13.1,13.1v3.274h6.548V16.371a6.556,6.556,0,0,1,6.548-6.548H140.79V78.581h6.548V9.823H189.9a6.556,6.556,0,0,1,6.548,6.548v163.71a6.556,6.556,0,0,1-6.548,6.548H160.435v6.548h7.8l5.643,11.287a3.274,3.274,0,0,0,2.928,1.81h9.823A3.274,3.274,0,0,0,189.9,203v-9.823a13.112,13.112,0,0,0,13.1-13.1V16.371a13.112,13.112,0,0,0-13.1-13.1Zm-6.548,196.452H178.83l-3.274-6.548h7.8Z" fill="#ffffff"/>
      <path id="Path_50" data-name="Path 50" d="M29.468,72.032H58.935v6.548h6.548V72.032H94.952a3.274,3.274,0,0,0,3.263-3.546L94.94,29.2a3.274,3.274,0,0,0-3.263-3H65.484V19.645H58.935v6.548H32.742a3.274,3.274,0,0,0-3.263,3l-3.274,39.29a3.274,3.274,0,0,0,3.263,3.546Zm6.287-39.29h52.91l2.729,32.742H33.026Z" fill="#ffffff"/>
    </g>
  </g>
</svg>
