<?xml version="1.0" encoding="utf-8"?>
<!-- Generator: Adobe Illustrator 19.0.0, SVG Export Plug-In . SVG Version: 6.00 Build 0)  -->
<svg version="1.1" id="Layer_1" xmlns="http://www.w3.org/2000/svg" xmlns:xlink="http://www.w3.org/1999/xlink" x="0px" y="0px"
	 viewBox="0 0 70 70" style="enable-background:new 0 0 70 70;" xml:space="preserve">
<style type="text/css">
	.st0{fill:none;stroke:#FFFFFF;stroke-width:1.5;stroke-miterlimit:10;}
</style>
<path class="st0" d="M61.4,58.8h-54c-2.8,0-5-2.3-5-5v-14c0-2.8,2.2-5,5-5h54c2.7,0,5,2.3,5,5v14C66.4,56.6,64.1,58.8,61.4,58.8z"/>
<g>
	<path id="XMLID_11_" class="st0" d="M45.5,14.5h7.2c2.8,0,5.3,2.2,5.7,4.9l2.3,15.4"/>
</g>
<g>
	<path id="XMLID_9_" class="st0" d="M8,34.8l2.3-15.4c0.4-2.7,3-4.9,5.7-4.9h7.2"/>
</g>
<g>
	<path class="st0" d="M16.8,59V64c0,2.4-1.7,4.3-3.8,4.3h0c-2.1,0-3.8-1.9-3.8-4.3v-5.1"/>
	<path class="st0" d="M59.3,58.8V64c0,2.4-1.7,4.3-3.8,4.3h0c-2.1,0-3.8-1.9-3.8-4.3v-5.1"/>
</g>
<ellipse class="st0" cx="16.7" cy="46.8" rx="3.8" ry="4.3"/>
<ellipse class="st0" cx="51.6" cy="46.8" rx="3.8" ry="4.3"/>
<path class="st0" d="M42.3,50H26.5c-1.8,0-3.2-1.4-3.2-3.2v0c0-1.8,1.4-3.2,3.2-3.2h15.8c1.8,0,3.2,1.4,3.2,3.2v0
	C45.5,48.6,44,50,42.3,50z"/>
<line class="st0" x1="23.3" y1="46.8" x2="45.3" y2="46.8"/>
<ellipse class="st0" cx="34.4" cy="14.5" rx="11.1" ry="10.2"/>
<polyline class="st0" points="34.3,7.1 34.3,14.5 40.5,14.5 "/>
</svg>
