<svg xmlns="http://www.w3.org/2000/svg" xmlns:xlink="http://www.w3.org/1999/xlink" width="215" height="215" viewBox="0 0 215 215">
  <defs>
    <clipPath id="clip-path">
      <rect id="Rectangle_2" data-name="Rectangle 2" width="215" height="215" transform="translate(300 68)" fill="#ffffff" stroke="#707070" stroke-width="1"/>
    </clipPath>
  </defs>
  <g id="CCTV_Camera" data-name="CCTV Camera" transform="translate(-300 -68)" clip-path="url(#clip-path)">
    <g id="cctv" transform="translate(300 68)">
      <g id="Group_2" data-name="Group 2">
        <g id="Group_1" data-name="Group 1">
          <path id="Path_8" data-name="Path 8" d="M212.459,64.3,102.1,13.846a37.333,37.333,0,0,0-31.049,67.9L95.216,92.8l-1.387,3.027a23.723,23.723,0,0,0-.89,17.444l-7.39,16.156a15.908,15.908,0,0,1-14.416,9.261h-36.6v-5.622A25.492,25.492,0,0,0,9.072,107.608H4.35A4.347,4.347,0,0,0,0,111.952v88.242a4.347,4.347,0,0,0,4.345,4.35H9.072a25.491,25.491,0,0,0,25.457-25.454v-5.625H69.018a54.082,54.082,0,0,0,49.06-31.514l6.49-14.19a23.76,23.76,0,0,0,12.624-12.11l1.377-3.03L162.132,123.4a4.355,4.355,0,0,0,5.766-2.15l1.26-2.759a24.575,24.575,0,0,0,6.04.783,30.627,30.627,0,0,0,27.068-18.582,31.921,31.921,0,0,0,1.66-22.947L213,71.918a4.349,4.349,0,0,0-.537-7.618ZM25.83,179.089a16.783,16.783,0,0,1-16.758,16.76H8.7V116.312h.373a16.782,16.782,0,0,1,16.765,16.76v46.017Zm43.189-14.322H34.537V147.394h36.6a24.606,24.606,0,0,0,22.328-14.342l4.916-10.75A23.569,23.569,0,0,0,114.2,129.51l-4.034,8.819a45.355,45.355,0,0,1-41.146,26.439Zm60.262-52.731a15.137,15.137,0,0,1-27.532-12.589l1.384-3.032,27.535,12.592Zm32.526,1.64-23.555-10.772L102.795,86.689,74.673,73.829A28.633,28.633,0,1,1,98.49,21.75L201.592,68.9l-5.307,3.41-.042.022L175.318,85.777a4.332,4.332,0,0,0-1.6,1.849Zm32.546-16.6c-4.225,9.259-13.216,14.573-21.485,13.33l8.227-17.993,15.137-9.723a24.11,24.11,0,0,1-1.879,14.386Z" fill="#ffffff"/>
          <path id="Path_9" data-name="Path 9" d="M166.39,62.013,127.031,44.02a4.35,4.35,0,0,0-3.624,7.907l39.359,18a4.351,4.351,0,1,0,3.616-7.914Z" fill="#ffffff"/>
        </g>
      </g>
    </g>
  </g>
</svg>
