<?xml version="1.0" encoding="utf-8"?>
<!-- Generator: Adobe Illustrator 19.0.0, SVG Export Plug-In . SVG Version: 6.00 Build 0)  -->
<svg version="1.1" id="Layer_1" xmlns="http://www.w3.org/2000/svg" xmlns:xlink="http://www.w3.org/1999/xlink" x="0px" y="0px"
	 viewBox="0 0 70 70" style="enable-background:new 0 0 70 70;" xml:space="preserve">
<style type="text/css">
	.st0{fill:none;stroke:#FFFFFF;stroke-width:1.5;stroke-miterlimit:10;}
</style>
<g>
	<path class="st0" d="M48.5,27.7c-0.5,1.1-0.9,2.3-1.3,3.5C44.8,38.7,36,35,36,35s-10-7.1,1.4-15.9c5.3-4.1,17.3-0.8,17.3-0.8
		s-2.2,1.8-4.5,5.8"/>
	<path class="st0" d="M15.3,38.1c0,0,6.9-8.1,13.4-4.3s3.2,8.9,3.2,8.9s-5.2,6.5-10.8-0.2C17.4,37.8,15.3,38.1,15.3,38.1z"/>
	<path class="st0" d="M41.3,25.1c0,0-6.1,2.5-5.2,15.4C37,53.4,36,54.9,36,54.9C37.5,40.9,24.1,38,24.1,38"/>
</g>
<circle class="st0" cx="35" cy="36" r="32"/>
</svg>
