<svg xmlns="http://www.w3.org/2000/svg" xmlns:xlink="http://www.w3.org/1999/xlink" width="203" height="203" viewBox="0 0 203 203">
  <defs>
    <clipPath id="clip-path">
      <rect id="Rectangle_6" data-name="Rectangle 6" width="203" height="203" transform="translate(439 426)" fill="#ffffff" stroke="#707070" stroke-width="1"/>
    </clipPath>
  </defs>
  <g id="Entertainment" transform="translate(-439 -426)" clip-path="url(#clip-path)">
    <g id="video" transform="translate(451.174 426)">
      <path id="Path_25" data-name="Path 25" d="M174.687,81.944H39.418L169.345,44.306a3.966,3.966,0,0,0,2.706-4.911l-6.8-23.472A22.2,22.2,0,0,0,144.024,0a21.967,21.967,0,0,0-6.107.869L15.929,36.207A22.117,22.117,0,0,0,.875,63.54L7.518,86.471v94.464A22.09,22.09,0,0,0,29.581,203h79.606a3.965,3.965,0,0,0,0-7.93h-79.6a14.151,14.151,0,0,1-14.136-14.136V126.979H170.722v53.956a14.151,14.151,0,0,1-14.136,14.136H108.943a3.965,3.965,0,0,0,0,7.93h47.643a22.09,22.09,0,0,0,22.065-22.065V85.909a3.965,3.965,0,0,0-3.965-3.965Zm-69.913,37.105L121.62,89.873h21.91l-16.844,29.176Zm-31.068,0L90.552,89.873h21.91L95.618,119.049Zm-31.067,0L59.484,89.873H81.4L64.55,119.049ZM57.38,67.721,29.171,40.627l21.136-6.122a3.933,3.933,0,0,0,.52.612L79.037,62.211,57.9,68.333a3.946,3.946,0,0,0-.52-.612Zm53.129-49.894,28.209,27.094-21.136,6.122a3.863,3.863,0,0,0-.52-.612L88.853,23.338l21.136-6.122A3.933,3.933,0,0,0,110.509,17.828ZM80.668,26.473l28.209,27.093L87.741,59.689a3.863,3.863,0,0,0-.52-.612L59.011,31.984l21.136-6.122A4.189,4.189,0,0,0,80.668,26.473ZM140.125,8.486a14.018,14.018,0,0,1,3.9-.556,14.226,14.226,0,0,1,13.611,10.2l5.7,19.662L147.424,42.4a4.031,4.031,0,0,0-.522-.612L118.694,14.695ZM9.706,50.592a14.031,14.031,0,0,1,8.43-6.768l2.329-.675a4.032,4.032,0,0,0,.52.612L49.195,70.854,14.188,81l-5.7-19.662A14.035,14.035,0,0,1,9.706,50.592Zm5.741,39.281h34.88L33.483,119.049H15.447Zm120.395,29.176,16.844-29.176h18.035v29.176Zm0,0" fill="#ffffff" fill-rule="evenodd"/>
      <path id="Path_26" data-name="Path 26" d="M120.5,160.621a3.964,3.964,0,0,0-1.982-3.434L83.685,137.077a3.965,3.965,0,0,0-5.947,3.434v40.221a3.963,3.963,0,0,0,5.947,3.432l34.833-20.109a3.964,3.964,0,0,0,1.982-3.434ZM85.667,173.864V147.377l22.939,13.243Zm0,0" fill="#ffffff" fill-rule="evenodd"/>
      <path id="Path_27" data-name="Path 27" d="M93.084,195.07a3.965,3.965,0,1,0,3.965,3.965A3.973,3.973,0,0,0,93.084,195.07Zm0,0" fill="#ffffff" fill-rule="evenodd"/>
      <rect id="Rectangle_11" data-name="Rectangle 11" width="25" height="8" transform="translate(100.826 195)" fill="#ffffff"/>
    </g>
  </g>
</svg>
