<svg xmlns="http://www.w3.org/2000/svg" xmlns:xlink="http://www.w3.org/1999/xlink" width="215" height="215" viewBox="0 0 215 215">
  <defs>
    <clipPath id="clip-path">
      <rect id="Rectangle_4" data-name="Rectangle 4" width="215" height="215" transform="translate(832 68)" fill="#ffffff" stroke="#707070" stroke-width="1"/>
    </clipPath>
  </defs>
  <g id="Fish_Pond" data-name="Fish Pond" transform="translate(-832 -68)" clip-path="url(#clip-path)">
    <path id="pond" d="M107.794,205.128A107.178,107.178,0,0,1,.644,98.84L0,21.487a2.192,2.192,0,0,1,.629-1.554l1.363-1.385A21.866,21.866,0,0,1,17.5,11.973h.188a21.864,21.864,0,0,1,15.428,6.318l.19.187a17.614,17.614,0,0,0,12.511,5.062,17.511,17.511,0,0,0,12.423-5.268,22.034,22.034,0,0,1,31.125-.258L90.571,19.2a17.65,17.65,0,0,0,24.931-.207l1.545-1.572a22.035,22.035,0,0,1,31.125-.258l2.7,2.654a17.63,17.63,0,0,0,24.932-.208l3.118-3.17a22.032,22.032,0,0,1,31.124-.258l3.671,3.61a2.194,2.194,0,0,1,.655,1.542L215,97.058A107.178,107.178,0,0,1,108.71,205.124C108.406,205.127,108.1,205.128,107.794,205.128ZM4.386,22.358,5.023,98.8a102.8,102.8,0,0,0,176.09,71.23,102.125,102.125,0,0,0,29.5-72.939L210,22.274,206.972,19.3a17.65,17.65,0,0,0-24.932.207l-3.118,3.17a21.865,21.865,0,0,1-15.509,6.576A21.986,21.986,0,0,1,147.8,22.935l-2.7-2.654a17.65,17.65,0,0,0-24.932.207l-1.545,1.572a22.034,22.034,0,0,1-31.125.258l-1.205-1.186a17.65,17.65,0,0,0-24.932.207,22.008,22.008,0,0,1-31.125.258l-.19-.187a17.63,17.63,0,0,0-24.934.206ZM137.4,178.6a2.307,2.307,0,0,1-.375-.032,20.124,20.124,0,0,1-8.18-3.791,14.956,14.956,0,0,1-2.912-3.113,44.834,44.834,0,0,1-26.581-11.007,2.189,2.189,0,0,1-.463-2.471A32.768,32.768,0,0,1,122.382,141a14.25,14.25,0,0,1,1.051-4.362,9.858,9.858,0,0,1,4.288-5.042,2.189,2.189,0,0,1,2.879.865c.5.847,2.28,3.149,4.451,3.511a54.193,54.193,0,0,0,6.905.651,2.19,2.19,0,0,1,1.977,1.339,16.965,16.965,0,0,1,.922,3.017,10.213,10.213,0,0,1,.161,2,41.557,41.557,0,0,1,10.08,5.258,19.628,19.628,0,0,1,2.507-6.006,8.858,8.858,0,0,1,8.257-4.013,2.19,2.19,0,0,1,1.739,2.966,14.944,14.944,0,0,0-1,4.97c.128,2.747.14,5.6-1.213,7.632a8.538,8.538,0,0,1-1.738,1.842,8.665,8.665,0,0,1,1.106,1.115c1.454,1.78,1.7,4.422,1.831,6.974a13.55,13.55,0,0,0,1.346,4.387,2.191,2.191,0,0,1-1.444,3.118,8.27,8.27,0,0,1-8.091-2.992,18.417,18.417,0,0,1-2.918-5.494,48.465,48.465,0,0,1-16.147,7.779,15.778,15.778,0,0,1,.223,6.3A2.191,2.191,0,0,1,137.4,178.6Zm-9-11.27a12.4,12.4,0,0,0,3.147,4,15.565,15.565,0,0,0,3.816,2.173,8.536,8.536,0,0,0-.563-2.752c-.559-1.364-2.543-2.622-5.444-3.448A3.43,3.43,0,0,0,128.4,167.328Zm-11.256-1.747a41.749,41.749,0,0,0,6.2,1.4c-.153-.406-.231-.658-.24-.686a2.189,2.189,0,0,1,1.453-2.733c.9-.274,3.97-1.125,5.918-.571a15.769,15.769,0,0,1,6.677,3.545c9.762-2.226,17.059-8.139,19.976-10.824-3.14-3.274-12.149-10.958-27.555-10.958l-.386,0a31.533,31.533,0,0,0-12.691,2.633A19.3,19.3,0,0,1,119,156.165,27.49,27.49,0,0,1,117.149,165.581Zm42-5.786a15.857,15.857,0,0,0,2.634,5.662,4.414,4.414,0,0,0,.788.762,11.906,11.906,0,0,1-.369-2.286c-.059-1.171-.183-3.61-.851-4.428a4.879,4.879,0,0,0-.947-.854C160.057,158.987,159.637,159.372,159.153,159.8Zm-55.5-1.211a40.916,40.916,0,0,0,9.375,5.5,23.194,23.194,0,0,0,1.584-7.879,14.992,14.992,0,0,0-1.972-6.739A29.133,29.133,0,0,0,103.658,158.585Zm55.277-7.235c.517.479.964.924,1.345,1.319a5.7,5.7,0,0,0,1.457-1.314c.671-1.009.545-3.706.484-5a13.451,13.451,0,0,1,.241-2.985,4.922,4.922,0,0,0-1.211,1.28A17.683,17.683,0,0,0,158.935,151.35Zm-29.778-10.979.019,2.189-.019-2.189a46.649,46.649,0,0,1,11.363,1.262c-.053-.241-.115-.478-.18-.7a56.9,56.9,0,0,1-6.009-.648,10.626,10.626,0,0,1-5.958-3.552,6.77,6.77,0,0,0-.889,1.56,10.292,10.292,0,0,0-.626,2.16Q127.979,140.383,129.157,140.371ZM65.581,163.3a9.508,9.508,0,0,1-2.544-.348A9.468,9.468,0,0,1,60.9,145.589h0A9.468,9.468,0,1,1,65.581,163.3Zm-.022-14.566a5.07,5.07,0,0,0-2.5.662h0a5.089,5.089,0,1,0,3.867-.476A5.176,5.176,0,0,0,65.559,148.736Zm13.312-12.2a7.275,7.275,0,0,1-3.6-13.606h0a7.276,7.276,0,1,1,3.6,13.606Zm-1.438-9.8a2.9,2.9,0,1,0,3.945,1.094,2.9,2.9,0,0,0-3.945-1.094Zm20.392-9.363a2.311,2.311,0,0,1-.377-.032,33.171,33.171,0,0,1-13.471-6.258,24.989,24.989,0,0,1-5.172-5.687C50.511,103.58,33.647,87.4,32.935,86.7a2.189,2.189,0,0,1-.463-2.471,56.525,56.525,0,0,1,40.856-29.1,22.439,22.439,0,0,1,1.752-8.346,15.658,15.658,0,0,1,6.673-7.918,2.188,2.188,0,0,1,2.878.865c.032.055,3.547,5.992,8.853,6.875A95.523,95.523,0,0,0,105.7,47.756a2.191,2.191,0,0,1,1.978,1.339,28.051,28.051,0,0,1,1.5,4.917,18.021,18.021,0,0,1,.209,4.281,70.167,70.167,0,0,1,20.175,10.756,34.829,34.829,0,0,1,4.653-12.284,13.685,13.685,0,0,1,12.768-6.26,2.191,2.191,0,0,1,1.741,2.963c-.021.054-2.041,5.3-1.853,9.285.21,4.5.242,9.151-1.837,12.276a15.835,15.835,0,0,1-4.379,4.08,15.15,15.15,0,0,1,3.374,2.958c2.215,2.714,2.606,7,2.818,11.164.184,3.625,2.484,8.21,2.507,8.256a2.189,2.189,0,0,1-1.444,3.118A12.763,12.763,0,0,1,135.5,99.962a32.464,32.464,0,0,1-5.464-11.146,82.551,82.551,0,0,1-30.9,14.973,25.385,25.385,0,0,1,.845,11.793A2.192,2.192,0,0,1,97.824,117.371ZM79.856,98.2a24.936,24.936,0,0,0,6.828,9.436,29.236,29.236,0,0,0,9.222,4.792,18.558,18.558,0,0,0-1.093-7.667c-1.176-2.87-4.9-5.328-10.493-6.921A12.064,12.064,0,0,0,79.856,98.2Zm-19.3-.8a73.78,73.78,0,0,0,15.463,3.359,29.854,29.854,0,0,1-1.446-3.607,2.189,2.189,0,0,1,1.453-2.733c1.03-.316,6.323-1.848,9.354-.983,3.683,1.052,8.486,2.986,11.482,6.371,19.262-4.1,33.2-16.337,37.449-20.452-4.45-4.9-21.081-20.717-50.076-20.717-.222,0-.44,0-.663,0l-.019-2.189.019,2.189a56.3,56.3,0,0,0-24.313,5.395c1.672,2.716,4.968,8.96,5.026,16.036C64.349,87.74,61.537,95.083,60.559,97.4Zm73.211-11.61c.474,2.036,1.979,7.549,5.121,11.4a8.524,8.524,0,0,0,5.208,3.142,24.126,24.126,0,0,1-1.625-6.884c-.166-3.285-.46-6.931-1.836-8.618a11.675,11.675,0,0,0-3.088-2.5C136.68,83.188,135.41,84.387,133.77,85.791ZM37.187,84.622A71.686,71.686,0,0,0,56.438,95.9c.736-1.725,3.527-8.745,3.468-15.788-.051-6.211-3.165-11.844-4.515-14A50.718,50.718,0,0,0,37.187,84.622Zm96.292-12.314c1.615,1.459,2.875,2.754,3.786,3.754a13.6,13.6,0,0,0,4.125-3.456c1.345-2.022,1.278-6.039,1.109-9.645a26.625,26.625,0,0,1,1.11-7.886,9.444,9.444,0,0,0-5.743,4.114C134.785,63.827,133.752,70.161,133.479,72.308ZM84.259,54.26a78.844,78.844,0,0,1,20.8,2.706,11.375,11.375,0,0,0-.171-2.12,21.754,21.754,0,0,0-.759-2.764,98.865,98.865,0,0,1-11.358-1.16C87.709,50.08,84.06,46.3,82.21,43.908a12.677,12.677,0,0,0-3.078,4.533,18.571,18.571,0,0,0-1.41,6.118q2.8-.264,5.815-.3C83.778,54.261,84.02,54.26,84.259,54.26ZM24.489,75.42a7.274,7.274,0,0,1-.058-14.549h.061a7.274,7.274,0,0,1,.059,14.549Zm-.023-10.17a2.9,2.9,0,0,0,.025,5.791h.024a2.9,2.9,0,0,0-.025-5.791Zm154.568-1.7a11.2,11.2,0,0,1-.09-22.4h0a11.2,11.2,0,1,1,.186,22.4Zm-.055-18.021a6.821,6.821,0,0,0-4.727,11.685,6.66,6.66,0,0,0,4.84,1.957,6.821,6.821,0,0,0-.113-13.642Zm-133.6,7.221A9.323,9.323,0,0,1,45.3,34.106c-.019-.031.05,0,.078,0a9.323,9.323,0,0,1,.078,18.646Zm-.043-14.267a4.945,4.945,0,0,0,.042,9.89h.042a4.944,4.944,0,0,0-.043-9.888Z" transform="translate(832 68.001)" fill="#ffffff" stroke="#001f46" stroke-width="1.095"/>
  </g>
</svg>
