<svg xmlns="http://www.w3.org/2000/svg" viewBox="0 0 1121.89 406.27"><defs><style>.cls-1{fill:#ffffff;}</style></defs><title>logo</title><g id="Layer_2" data-name="Layer 2"><g id="Layer_1-2" data-name="Layer 1"><path class="cls-1" d="M0,400.75V5.52H56q21.54,0,32.86,14.63t11.32,48.3V131.1q0,26.22-9,41.54T67,191v1.11q16.38,3,26.94,18.35t10.56,42.09v85q0,32.57-13.26,47.88t-34.8,15.32ZM50.21,9.11H30V189.89h22q18.09,0,18.1-48V70.66q0-10.48-.22-17.25T69,38.78A71,71,0,0,0,67,26.22a48.09,48.09,0,0,0-3.45-9A14.41,14.41,0,0,0,58.08,11,15.43,15.43,0,0,0,50.21,9.11ZM30,396.89H49.78q10.13,0,17.46-13t7.32-35.06V255q0-27-5.82-44.43T51.94,193.2H30Z"/><path class="cls-1" d="M195.89,400.75H132.32V5.52h29.52V397.44h34Z"/><path class="cls-1" d="M260.11,406.27q-43.11,0-43.1-63.2V5.52h30V345.83q0,35.06,3.56,45.81t14.55,10.77q19.4,0,29.95-18.36t10.56-53.4V5.52h2.8V330.65Q308.38,406.28,260.11,406.27Z"/><path class="cls-1" d="M412.47,9.11H369.58V201.76h31.68v3.31H369.58V397.44h42.89v3.31H340.06V5.52h72.41Z"/><path class="cls-1" d="M454.71,400.75,424.1,5.52h30.17l28.67,381.16h.86l19.39-249.23L493.06,5.52h30.39l28.66,381.16H553L582.71,5.52h2.59L554.91,400.75H523.45l-18.1-245.36h-.86l-19,245.36Z"/><path class="cls-1" d="M587.67,400.75,620,5.52h30.82l32.33,395.23H652.53L642,266.34H601.89l-11,134.41Zm14.65-138H642l-19.39-244h-.86Z"/><path class="cls-1" d="M779.25,5.52V9.11H750.16V400.75H720.63V9.11H691.32V5.52Z"/><path class="cls-1" d="M871.91,9.11H829V201.76h31.68v3.31H829V397.44h42.88v3.31h-72.4V5.52h72.4Z"/><path class="cls-1" d="M893.9,5.52h56q21.55,0,32.87,14.63t11.31,48.3v74q0,26.22-9.05,41.53t-24.57,18.36v1.1q15.74,3,24.68,18.08t8.94,42.37V400.75H963.93V266.34q0-29.53-3.88-45.68t-14.22-16.14h-22V400.75h-30Zm30,3.59V201.2h22q18.1,0,18.1-48V70.66q0-10.48-.21-17.25c-.15-4.51-.43-9.39-.87-14.63a71.17,71.17,0,0,0-1.93-12.56,49.52,49.52,0,0,0-3.45-9A14.37,14.37,0,0,0,952,11a15.42,15.42,0,0,0-7.86-1.93Z"/><path class="cls-1" d="M1072.54,3.31a14.88,14.88,0,0,0-9.8,3.31,21.35,21.35,0,0,0-6,8q-2.06,4.7-3.24,13.66a160.85,160.85,0,0,0-1.4,16.42q-.21,7.45-.21,20.15v87.77q0,25.4,4.2,37t16,11.59h6.68q43.11,0,43.1,62.66v79.21q0,34.23-11.09,48.71t-32.44,14.49h-12.5q-21.77,0-33-13.66t-11.2-45.68v-93h30.17v91.36q0,14.63.54,23.46a117.83,117.83,0,0,0,2.37,17.52q1.82,8.7,5.92,12.7a14.5,14.5,0,0,0,10.56,4,14.84,14.84,0,0,0,9.81-3.31,22.62,22.62,0,0,0,6.14-8q2.15-4.68,3.23-13.8t1.29-16.56q.22-7.44.22-20.42V253.09q0-25.38-4.2-37t-16.06-11.59H1065q-43.32,0-43.31-63.21V62.65q0-33.66,11.2-48.16T1065.43,0h12.5q21.77,0,32.87,13.66t11.09,45.68v92.74h-30V61q0-14.91-.54-23.74A120.84,120.84,0,0,0,1089,19.73Q1087.2,11,1083.1,7.18A14.75,14.75,0,0,0,1072.54,3.31Z"/></g></g></svg>