<svg xmlns="http://www.w3.org/2000/svg" xmlns:xlink="http://www.w3.org/1999/xlink" width="203" height="203" viewBox="0 0 203 203">
  <defs>
    <clipPath id="clip-path">
      <rect id="Rectangle_8" data-name="Rectangle 8" width="203" height="203" transform="translate(439 706)" fill="#ffffff" stroke="#707070" stroke-width="1"/>
    </clipPath>
  </defs>
  <g id="Pool_Terrace" data-name="Pool / Terrace" transform="translate(-439 -706)" clip-path="url(#clip-path)">
    <path id="sunbed" d="M170.046,28.33c-15.616-13.091-36.1-20.575-57.995-21.258V3.288a3.288,3.288,0,1,0-6.577,0V7.072C83.583,7.754,63.1,15.239,47.48,28.33c-16.564,13.885-25.686,32.4-25.686,52.124a3.289,3.289,0,0,0,5.5,2.429c5.179-4.724,15.018-7.66,25.677-7.66s20.5,2.935,25.677,7.66a3.289,3.289,0,0,0,4.432,0c4.641-4.234,13.026-7.029,22.389-7.564v86.027H94.326L83.991,146.878h7.233a3.288,3.288,0,1,0,0-6.577H42.913L25.952,116.556A10.3,10.3,0,0,0,9.184,128.534L44.26,177.641a10.26,10.26,0,0,0,1.442,1.617L42.384,199.17a3.289,3.289,0,0,0,2.7,3.785,3.342,3.342,0,0,0,.545.045,3.29,3.29,0,0,0,3.24-2.748l3.054-18.325c.238.017.477.028.718.028h52.832v17.757a3.288,3.288,0,1,0,6.577,0V181.954h64.077l3.05,18.3a3.289,3.289,0,0,0,6.488-1.082l-2.871-17.226a10.3,10.3,0,0,0-.372-20.6H112.052V75.32c9.363.535,17.747,3.33,22.389,7.564a3.289,3.289,0,0,0,4.432,0c5.179-4.724,15.018-7.66,25.677-7.66s20.5,2.935,25.677,7.66a3.289,3.289,0,0,0,5.5-2.429C195.731,60.727,186.61,42.215,170.046,28.33ZM75.91,146.878l10.335,14.469h-28.3L47.611,146.878ZM186.149,171.65a3.731,3.731,0,0,1-3.727,3.727H52.643a3.736,3.736,0,0,1-3.033-1.56L14.535,124.711a3.729,3.729,0,0,1,3.023-5.894,3.824,3.824,0,0,1,.622.051,3.706,3.706,0,0,1,2.421,1.51l32.977,46.168a3.288,3.288,0,0,0,2.676,1.377H182.423A3.731,3.731,0,0,1,186.149,171.65ZM125.434,31.943c4.561,11.4,7.294,26.205,7.833,42.187-6.471-3.489-15.154-5.483-24.5-5.483s-18.033,1.994-24.5,5.483c.54-15.982,3.272-30.787,7.833-42.187,4.667-11.663,10.743-18.351,16.671-18.351S120.767,20.281,125.434,31.943ZM28.746,73.974c3.472-29.9,30.718-54.093,65.776-59.327A52.891,52.891,0,0,0,85.987,29.5c-4.868,12.165-7.77,27.876-8.311,44.736-6.492-3.554-15.255-5.588-24.7-5.588C43.762,68.647,35.187,70.578,28.746,73.974Zm135.8-5.326c-9.444,0-18.208,2.034-24.7,5.588-.541-16.86-3.444-32.57-8.311-44.736A52.9,52.9,0,0,0,123,14.647c35.058,5.234,62.3,29.43,65.776,59.327C182.339,70.578,173.765,68.647,164.55,68.647Z" transform="translate(439 706)" fill="#ffffff"/>
  </g>
</svg>
