<svg xmlns="http://www.w3.org/2000/svg" xmlns:xlink="http://www.w3.org/1999/xlink" width="203" height="203" viewBox="0 0 203 203">
  <defs>
    <clipPath id="clip-path">
      <rect id="Rectangle_5" data-name="Rectangle 5" width="203" height="203" transform="translate(155 426)" fill="#ffffff" stroke="#707070" stroke-width="1"/>
    </clipPath>
  </defs>
  <g id="Retail_Shops" data-name="Retail Shops" transform="translate(-155 -426)" clip-path="url(#clip-path)">
    <g id="shop" transform="translate(151.726 422.726)">
      <path id="Path_22" data-name="Path 22" d="M203,62.21a3.274,3.274,0,0,0,3.274-3.274V49.113A3.274,3.274,0,0,0,203,45.839H147.339V42.565h19.645a3.274,3.274,0,0,0,3.274-3.274V9.823a3.274,3.274,0,0,0-3.274-3.274H42.565A3.274,3.274,0,0,0,39.29,9.823V39.29a3.274,3.274,0,0,0,3.274,3.274H62.21v3.274H6.548a3.274,3.274,0,0,0-3.274,3.274v9.823A3.274,3.274,0,0,0,6.548,62.21H9.823V186.629H6.548A3.274,3.274,0,0,0,3.274,189.9v9.823A3.274,3.274,0,0,0,6.548,203H203a3.274,3.274,0,0,0,3.274-3.274V189.9A3.274,3.274,0,0,0,203,186.629h-3.274V62.21ZM45.839,36.016V13.1H163.71V36.016Zm94.952,6.548v3.274H108.048V42.565Zm-39.29,0v3.274H68.758V42.565Zm98.226,153.887H9.823v-3.274h189.9ZM180.081,72.032H121.145a3.274,3.274,0,0,0-3.274,3.274V186.629H16.371V62.21H193.177V186.629h-9.823V75.306A3.274,3.274,0,0,0,180.081,72.032ZM124.419,88.4V78.581h52.387V88.4Zm52.387,6.548v91.677H124.419V94.952ZM9.823,55.661V52.387h189.9v3.274Z" fill="#ffffff"/>
      <path id="Path_23" data-name="Path 23" d="M166.984,127.694a3.274,3.274,0,0,0-3.274,3.274v19.645a3.274,3.274,0,1,0,6.548,0V130.968A3.274,3.274,0,0,0,166.984,127.694Z" fill="#ffffff"/>
      <path id="Path_24" data-name="Path 24" d="M29.468,157.161h75.306a3.274,3.274,0,0,0,3.274-3.274V75.306a3.274,3.274,0,0,0-3.274-3.274H29.468a3.274,3.274,0,0,0-3.274,3.274v78.581A3.274,3.274,0,0,0,29.468,157.161Zm72.032-6.548H32.742V94.952H101.5ZM32.742,78.581H101.5V88.4H32.742Z" fill="#ffffff"/>
    </g>
  </g>
</svg>
